PathFileType	4	(X/Y/Z)	Patient4_TMGait_0pt4_01_right_39.trc.trc
DataRate	CameraRate	NumFrames	NumMarkers	Units	OrigDataRate	OrigDataStartFrame	OrigNumFrames
74.866310160428	74.866310160428	4	33	mm	74.866310160428	18	       141
Frame#	Time	Sacral			L.Shoulder			Chest			R.Shoulder			Neck			R.ASIS			L.ASIS			R.Thigh.Superior			R.Thigh.Lateral			R.Thigh.Inferior			R.Patella			L.Thigh.Superior			L.Thigh.Lateral			L.Thigh.Inferior			L.Patella			L.Shank.Superior			L.Shank.Lateral			L.Shank.Inferior			R.Shank.Superior			R.Shank.Lateral			R.Shank.Inferior			R.Heel			R.Midfoot.Superior			R.Midfoot.Lateral			R.Toe			L.Heel			L.Midfoot.Lateral			L.Midfoot.Superior			L.Toe			L.Elbow			L.Wrist			R.Elbow			R.Wrist			
		X1	Y1	Z1	X2	Y2	Z2	X3	Y3	Z3	X4	Y4	Z4	X5	Y5	Z5	X6	Y6	Z6	X7	Y7	Z7	X8	Y8	Z8	X9	Y9	Z9	X10	Y10	Z10	X11	Y11	Z11	X12	Y12	Z12	X13	Y13	Z13	X14	Y14	Z14	X15	Y15	Z15	X16	Y16	Z16	X17	Y17	Z17	X18	Y18	Z18	X19	Y19	Z19	X20	Y20	Z20	X21	Y21	Z21	X22	Y22	Z22	X23	Y23	Z23	X24	Y24	Z24	X25	Y25	Z25	X26	Y26	Z26	X27	Y27	Z27	X28	Y28	Z28	X29	Y29	Z29	X30	Y30	Z30	X31	Y31	Z31	X32	Y32	Z32	X33	Y33	Z33	

18	51.087071428571	842.749640529801	1001.090990888313	417.894055181762	1037.459147081019	1427.411144918859	231.086727271920	1123.939223087239	1365.911376883178	403.462753411573	1024.246012961253	1445.799452897616	565.356008714673	1015.739869904160	1494.886436058297	383.322537529313	1066.885938612151	946.794228958345	550.579809697360	1066.203885897301	966.387470335850	274.741950159569	1141.952272102780	767.169346371453	521.509205863260	1100.012507984932	647.709130596626	597.225455987991	1185.039958427459	608.000490459915	513.810230391835	1218.705223137456	524.176561542687	531.945304834441	1091.867106020348	741.277358788399	306.905236777655	990.095895013174	634.545495147852	240.684517559582	1057.717405020632	548.257102292191	307.935601628279	1047.622366987670	480.240255957153	317.751023128387	1016.495476104237	410.679272805230	309.106457174833	919.723045376296	303.429920143484	255.683032562610	957.377046681128	189.336247128659	330.920680110770	1198.747238088081	436.986799264621	544.293643052499	1142.146558731464	326.777627034908	611.336833885671	1206.239754587704	236.840149190169	559.645447275081	1104.877221359198	53.781417305001	535.823854996718	1271.524111220261	120.312616271470	573.827728311105	1189.243576784453	49.944141183016	609.394545304257	1393.906290020363	77.915018988558	600.471706190247	820.014586183424	39.145534283801	372.647125127049	894.360436336030	34.916201698550	292.609254573202	977.910574488894	95.525677006808	320.430712225905	1106.839457826305	41.758728535761	293.627148605471	1062.635653098977	1080.303644426298	103.726790664304	1290.901460064360	953.165755346599	107.932556164388	880.846488490759	1139.136029070085	690.500698056484	854.732112081173	884.207353584588	736.698424546708	
19	51.100428571429	844.172927877361	1000.193902513740	419.192232466606	1038.290039267287	1426.770915926263	232.957643552307	1124.530309348488	1365.476620419966	405.505836566949	1024.297910705267	1445.124784965362	567.173684404656	1016.013612666897	1494.175089487645	385.153964508867	1068.233221797580	945.669365077741	552.224370759939	1066.766531804125	965.094850591275	276.648811483350	1142.537512783449	764.988930364784	523.369601178009	1098.616458202939	645.146759897629	597.791945632709	1183.964708649730	605.436376975532	514.935346894990	1216.338653378121	521.760962001967	532.089141762220	1091.477832831246	740.246757497460	307.931253830036	988.474012753598	634.475032899289	241.495533605039	1055.183180562235	547.475346680411	308.438479464154	1044.472574999435	479.480661624662	318.137929908386	1013.030289955130	410.257221291334	309.345307278795	915.405385705255	303.669849597622	255.929922057447	952.578658422064	189.185485598233	330.910793120455	1196.643312875510	434.330343006063	544.208425647066	1140.045895900694	323.949058150151	610.830769121954	1204.088995818280	234.270762940102	558.859195905992	1102.875048860303	51.405753396928	534.520107640084	1269.156273161112	117.985920860676	572.588876384105	1187.008003332561	47.815641545320	608.276878797155	1391.517796799014	75.982904808213	599.624897462703	814.624170589085	39.219373443434	372.587682523112	888.974169616059	34.942084427290	292.606547138027	972.569437902398	95.499582121194	320.384780361541	1101.442454925657	41.618567966508	293.606169618363	1065.170883490540	1079.936610145037	105.451004609885	1295.157590996120	956.178153921896	109.104023405349	880.143658729353	1138.412403120263	690.739134914012	853.947589948709	883.075118259776	735.503915994978	
20	51.113785714286	845.751948670482	999.216354544552	420.784221249092	1039.000461207490	1426.131856993263	235.021181169282	1125.107956208350	1365.082977981027	407.699046883157	1024.356274592455	1444.394160543089	569.227448411472	1016.168920896564	1493.433809842164	387.197680715569	1069.863963812468	944.512603751844	553.939954568895	1067.707448532758	963.850233841753	278.584252445059	1143.699150964329	762.896870378976	525.182875876363	1097.677315973469	642.611309846587	598.184668390272	1183.431295452770	602.990882297039	515.967558016549	1214.309689562945	519.176209825019	532.136433186613	1091.196597511744	739.177075049577	308.963353271019	986.883626277166	634.417751844633	242.418488949091	1052.750751674164	546.681922983403	308.961932410992	1041.429023527476	478.685817715679	318.580280461203	1009.653076234963	409.838295169931	309.629327507565	911.097993498775	303.967934407403	256.246194962954	947.795685039178	189.055116190254	330.915652873978	1194.370898282613	431.372527049892	544.022672573818	1137.034708854919	321.220625556854	610.178776414884	1200.401529189185	231.390210168041	557.954536641700	1098.148188402343	49.487647592179	533.066831159509	1264.384528717603	115.227166340369	571.351953406432	1181.929899255333	45.794505262353	607.147200640298	1386.466350905091	72.935761127231	598.948290470644	809.230393296743	39.304798357397	372.523983316091	883.590730592870	34.979710912327	292.611013921688	967.228866076452	95.495011390374	320.333759357177	1096.044595826874	41.470719669623	293.580351819815	1067.470930326004	1079.565796815222	107.347991766334	1298.946435529915	958.822626901572	110.452099409150	880.262303685782	1137.229048631880	691.380426410348	854.811238837103	881.343978986252	734.481066745202	
21	51.127142857143	847.480786542902	998.179407486369	422.660451955693	1039.611849177664	1425.499832102736	237.281285215958	1125.694369788738	1364.732816666175	410.046156094373	1024.453445221060	1443.616468863981	571.524725245403	1016.232848551714	1492.673968248578	389.457953883270	1071.761561295692	943.334799526384	555.720080944043	1069.103350306899	962.736926020221	280.524663372587	1145.330361611050	760.841966035927	526.941977748705	1097.110430381171	640.127679604067	598.445593997236	1183.324591335054	600.646371958871	516.906499930036	1212.551588463237	516.452471606900	532.088851548853	1091.048281514187	738.084802021029	309.963278301182	985.333638210376	634.382099612919	243.451286984643	1050.445324569760	545.885090330107	309.493366249849	1038.529997104360	477.858114828894	319.058534638079	1006.380919680586	409.423063836332	309.955937824919	906.810058175165	304.335316684416	256.635557715867	943.034881065173	188.951570552299	330.930471442389	1191.982210264372	428.195171917255	543.760720618002	1133.383512736673	318.569623100053	609.464135973843	1195.571144581164	228.265742969554	556.968335651806	1091.363836537262	47.891018571105	531.588404197175	1257.818810932525	112.196059970325	570.134237339655	1174.746212695411	43.877612430469	606.072347047086	1379.477982109705	69.124644894312	598.371091652178	803.835582551485	39.418589052590	372.456053339503	878.214335271488	35.034706317291	292.622289326798	961.895386962109	95.515799957385	320.273465685412	1090.652464532844	41.310516076550	293.545907365287	1069.512743900270	1079.191621719054	109.406123040905	1302.252220389020	961.079820061237	111.983155590283	881.158529238692	1135.645060613203	692.460882202441	857.309239972080	879.088887680472	733.685372020586	
